<?xml version="1.0" encoding="UTF-8"?>
<svg version="1.1" xmlns="http://www.w3.org/2000/svg" width="512" height="512">
<path d="M0 0 C1.4895784 -0.0168821 2.97910457 -0.03942556 4.46850586 -0.06793213 C6.57188481 -0.10380201 8.67357161 -0.11159147 10.77722168 -0.11148071 C12.61292725 -0.12380737 12.61292725 -0.12380737 14.48571777 -0.13638306 C19.66644342 0.60542469 22.71549217 3.12493888 26.25378418 6.84945679 C28.65181993 12.01445687 28.63259953 16.74968559 27.87878418 22.34945679 C25.60088372 27.25570393 22.66132451 29.86621469 17.87878418 32.34945679 C12.68773245 33.1994202 7.57425793 33.48345826 2.32165527 33.63925171 C-89.73336985 36.42275576 -170.21504861 77.7001211 -233.12121582 143.34945679 C-236.3428217 146.85089705 -239.25608304 150.55210249 -242.12121582 154.34945679 C-243.14050456 155.65405048 -244.16148507 156.95732331 -245.18371582 158.25961304 C-256.32648794 172.53246891 -265.99649163 187.33977434 -274.86779785 203.12142944 C-275.64725109 204.5069554 -276.43126164 205.8899402 -277.22229004 207.26889038 C-301.30210006 249.28464314 -315.35779639 301.9104963 -315.14587402 350.27059937 C-315.14409401 351.05101845 -315.142314 351.83143753 -315.14048004 352.63550568 C-315.13587733 354.54016131 -315.12880312 356.4448107 -315.12121582 358.34945679 C-314.19715439 357.41651291 -313.27309296 356.48356903 -312.32102966 355.52235413 C-303.60705791 346.72726038 -294.88251657 337.94277439 -286.14754391 329.16853619 C-281.65725362 324.65738043 -277.17075645 320.14258341 -272.69274902 315.61923218 C-268.3702821 311.25327222 -264.03808869 306.89718472 -259.69900703 302.54773903 C-258.04612377 300.88747077 -256.39676249 299.22368842 -254.75102043 297.55634117 C-252.44348796 295.2197307 -250.12369508 292.89598216 -247.80065918 290.57479858 C-247.12452072 289.88427902 -246.44838226 289.19375946 -245.75175476 288.48231506 C-241.26637396 284.03542994 -237.263735 281.09205249 -230.89855957 279.95101929 C-225.54609454 280.01920355 -221.51491929 280.92340597 -217.67590332 284.81430054 C-214.17737099 288.90258546 -212.94645361 291.29292706 -212.80871582 296.59945679 C-212.7526416 297.99937866 -212.7526416 297.99937866 -212.69543457 299.42758179 C-213.52343836 305.10966285 -217.65998637 309.13835069 -221.5994873 313.08169556 C-222.93691483 314.42758255 -222.93691483 314.42758255 -224.30136108 315.80065918 C-225.28157662 316.77698702 -226.26189625 317.75321037 -227.24230957 318.7293396 C-228.28114541 319.77088831 -229.3195559 320.81286139 -230.35757446 321.85522461 C-233.16690734 324.67364623 -235.98249472 327.48573973 -238.7995491 330.29644108 C-241.75018554 333.24200202 -244.69592565 336.19245313 -247.64245605 339.14212036 C-252.58849027 344.09178855 -257.53871638 349.03723494 -262.49133301 353.98031616 C-268.21640443 359.69449211 -273.93421913 365.41585354 -279.64834118 371.14097714 C-284.55856362 376.06027429 -289.47267125 380.97566482 -294.39004993 385.88780856 C-297.3253729 388.82001439 -300.25932989 391.75355271 -303.18978882 394.69062042 C-305.94315871 397.4497662 -308.70137247 400.20397612 -311.46340561 402.9544487 C-312.47615731 403.96455565 -313.48721046 404.9763689 -314.49643326 405.99000168 C-315.87397707 407.37300906 -317.2582939 408.74926032 -318.64294434 410.12515259 C-319.80214134 411.28321852 -319.80214134 411.28321852 -320.98475647 412.46467972 C-324.68781238 415.73150287 -327.52569479 416.6550364 -332.43371582 416.72445679 C-333.33734863 416.75281616 -334.24098145 416.78117554 -335.17199707 416.81039429 C-343.76777888 415.46694759 -349.46146047 408.4433771 -355.30749512 402.56723022 C-356.3161936 401.56424172 -357.32551881 400.56188318 -358.3354187 399.56010437 C-361.06337921 396.85002034 -363.78176905 394.1305275 -366.49794364 391.40863705 C-368.77142812 389.13205294 -371.04950143 386.86008841 -373.32754833 384.58807111 C-378.70384601 379.22579876 -384.07232873 373.85579103 -389.43591309 368.48080444 C-394.95863596 362.94660034 -400.49401839 357.42529835 -406.03586453 351.91024947 C-410.8042465 347.16405848 -415.5647929 342.41010787 -420.31915981 337.64987779 C-423.15410386 334.81157134 -425.99183149 331.97620396 -428.83707237 329.14821625 C-431.51291849 326.48789151 -434.17879216 323.81795244 -436.83749008 321.14049339 C-438.2732667 319.69930287 -439.7188593 318.26791205 -441.16477966 316.8368988 C-446.79837422 311.13903633 -452.1414134 305.64907041 -452.55871582 297.22445679 C-451.92574139 291.6181118 -450.31965819 288.18323999 -446.05871582 284.53695679 C-442.28766887 281.72873034 -440.50752003 281.15729802 -435.87121582 281.03695679 C-434.93793457 280.99957397 -434.00465332 280.96219116 -433.04309082 280.92367554 C-426.16407831 281.92609848 -421.32388635 287.86957204 -416.64709473 292.5965271 C-415.56313416 293.68004959 -415.56313416 293.68004959 -414.45727539 294.78546143 C-412.08266838 297.16145579 -409.71521401 299.54444369 -407.34777832 301.92758179 C-405.69769277 303.58139958 -404.04716353 305.23477479 -402.39620972 306.88772583 C-398.06157929 311.2299761 -393.73298988 315.57819995 -389.40563965 319.92770386 C-384.98504407 324.36879334 -380.55874979 328.80419506 -376.13293457 333.24008179 C-367.45678125 341.93765593 -358.78700055 350.64155275 -350.12121582 359.34945679 C-350.06979431 358.42735916 -350.0183728 357.50526154 -349.96539307 356.55522156 C-349.76816217 353.05792731 -349.56680333 349.56091716 -349.362854 346.06401062 C-349.27621635 344.56477335 -349.19111627 343.06544624 -349.10772705 341.56602478 C-344.33622455 255.97495648 -309.70620544 177.31533887 -252.12121582 114.34945679 C-251.13929425 113.26235334 -250.15753255 112.17510547 -249.17590332 111.08773804 C-244.40377684 105.82749334 -239.67435406 100.68903838 -234.21105957 96.13070679 C-231.61440134 93.91748034 -229.16427383 91.56701904 -226.68371582 89.22445679 C-219.28322921 82.35086953 -211.22960949 76.35431253 -203.12121582 70.34945679 C-202.53114746 69.90746948 -201.9410791 69.46548218 -201.33312988 69.01010132 C-152.48861239 32.49789779 -95.04656579 11.32928842 -35.12121582 2.34945679 C-34.23047363 2.21523315 -33.33973145 2.08100952 -32.42199707 1.94271851 C-21.66335775 0.4029857 -10.85461398 0.11724852 0 0 Z " fill="#000000" transform="translate(468.1212158203125,47.650543212890625)"/>
</svg>
