<svg width="60" height="60" viewBox="0 0 24 24" fill="none" xmlns="http://www.w3.org/2000/svg">
    <defs>
        <linearGradient id="grad1" x1="0%" y1="0%" x2="100%" y2="100%">
            <stop offset="0%" style="stop-color:#6A00FF;stop-opacity:1" />
            <stop offset="100%" style="stop-color:#8B3DFF;stop-opacity:1" />
        </linearGradient>
    </defs>
    <rect width="24" height="24" rx="4" fill="url(#grad1)"/>
    <path d="M12 4C8 4 6 7 6 10C6 14 9 17 12 17C15 17 18 14 18 10C18 7 16 4 12 4Z" fill="#FFFFFF"/>
    <path d="M10 8H14V10H12C12 10 12 12 12 12C12 12 12 14 14 14H10V12H12C12 12 12 10 12 10H10V8Z" fill="url(#grad1)"/>
</svg>